<mxfile host="app.diagrams.net" agent="Mozilla/5.0 (Windows NT 10.0; Win64; x64; rv:130.0) Gecko/20100101 Firefox/130.0" version="24.7.13">
  <diagram name="Page-1" id="VSzwEdQWrjDgjm7m65am">
    <mxGraphModel dx="1050" dy="1638" grid="1" gridSize="10" guides="1" tooltips="1" connect="1" arrows="1" fold="1" page="1" pageScale="1" pageWidth="850" pageHeight="1100" math="0" shadow="0">
      <root>
        <mxCell id="0" />
        <mxCell id="1" parent="0" />
        <mxCell id="AN_JPF0NplkVKXqB7AnQ-4" value="product" style="swimlane;childLayout=stackLayout;horizontal=1;startSize=50;horizontalStack=0;rounded=1;fontSize=14;fontStyle=0;strokeWidth=2;resizeParent=0;resizeLast=1;shadow=0;dashed=0;align=center;arcSize=4;whiteSpace=wrap;html=1;" vertex="1" parent="1">
          <mxGeometry x="425" y="-720" width="220" height="200" as="geometry" />
        </mxCell>
        <mxCell id="AN_JPF0NplkVKXqB7AnQ-5" value="&lt;div align=&quot;center&quot;&gt;product_id&lt;/div&gt;&lt;div align=&quot;center&quot;&gt;product_name&lt;/div&gt;&lt;div align=&quot;center&quot;&gt;product_size&lt;/div&gt;&lt;div align=&quot;center&quot;&gt;product_category_id&lt;/div&gt;&lt;div align=&quot;center&quot;&gt;product_qty_type&lt;/div&gt;" style="align=center;strokeColor=none;fillColor=none;spacingLeft=4;fontSize=12;verticalAlign=top;resizable=0;rotatable=0;part=1;html=1;" vertex="1" parent="AN_JPF0NplkVKXqB7AnQ-4">
          <mxGeometry y="50" width="220" height="150" as="geometry" />
        </mxCell>
        <mxCell id="AN_JPF0NplkVKXqB7AnQ-10" value="&lt;div&gt;&lt;code&gt;customer_purchases&lt;/code&gt;&lt;/div&gt;" style="swimlane;childLayout=stackLayout;horizontal=1;startSize=50;horizontalStack=0;rounded=1;fontSize=14;fontStyle=0;strokeWidth=2;resizeParent=0;resizeLast=1;shadow=0;dashed=0;align=center;arcSize=4;whiteSpace=wrap;html=1;" vertex="1" parent="1">
          <mxGeometry x="60" y="-570" width="260" height="200" as="geometry" />
        </mxCell>
        <mxCell id="AN_JPF0NplkVKXqB7AnQ-11" value="&lt;div align=&quot;center&quot;&gt;product_id&lt;/div&gt;&lt;div align=&quot;center&quot;&gt;vendor_id&lt;/div&gt;&lt;div align=&quot;center&quot;&gt;market_date&lt;/div&gt;&lt;div align=&quot;center&quot;&gt;customer_id&lt;br&gt;&lt;/div&gt;&lt;div align=&quot;center&quot;&gt;quantity&lt;/div&gt;&lt;div align=&quot;center&quot;&gt;cost_to_customer_per_qty&lt;br&gt;&lt;/div&gt;&lt;div align=&quot;center&quot;&gt;transaction_time&lt;/div&gt;" style="align=center;strokeColor=none;fillColor=none;spacingLeft=4;fontSize=12;verticalAlign=top;resizable=0;rotatable=0;part=1;html=1;" vertex="1" parent="AN_JPF0NplkVKXqB7AnQ-10">
          <mxGeometry y="50" width="260" height="150" as="geometry" />
        </mxCell>
        <mxCell id="AN_JPF0NplkVKXqB7AnQ-16" value="" style="edgeStyle=entityRelationEdgeStyle;fontSize=12;html=1;endArrow=ERmany;startArrow=ERmany;rounded=0;exitX=1.004;exitY=0.093;exitDx=0;exitDy=0;exitPerimeter=0;entryX=-0.005;entryY=0.153;entryDx=0;entryDy=0;entryPerimeter=0;" edge="1" parent="1" source="AN_JPF0NplkVKXqB7AnQ-11" target="AN_JPF0NplkVKXqB7AnQ-5">
          <mxGeometry width="100" height="100" relative="1" as="geometry">
            <mxPoint x="370" y="-450" as="sourcePoint" />
            <mxPoint x="470" y="-550" as="targetPoint" />
            <Array as="points">
              <mxPoint x="360" y="-480" />
              <mxPoint x="360" y="-530" />
              <mxPoint x="370" y="-520" />
            </Array>
          </mxGeometry>
        </mxCell>
      </root>
    </mxGraphModel>
  </diagram>
</mxfile>

